<svg width="290" height="164" viewBox="0 0 290 164" fill="none" xmlns="http://www.w3.org/2000/svg">
<path d="M3.5 3.5H286.5V160.5H3.5V3.5Z" stroke="black" stroke-width="7"/>
<path d="M36.2045 40.4545H43.2045V73.4545C43.2045 76.4394 42.6136 78.9924 41.4318 81.1136C40.2652 83.2348 38.6212 84.8561 36.5 85.9773C34.3788 87.0833 31.8939 87.6364 29.0455 87.6364C26.4242 87.6364 24.0682 87.1591 21.9773 86.2045C19.9015 85.25 18.2576 83.8636 17.0455 82.0455C15.8485 80.2121 15.25 77.9848 15.25 75.3636H22.2273C22.2273 76.6515 22.5227 77.7652 23.1136 78.7045C23.7197 79.6439 24.5455 80.3788 25.5909 80.9091C26.6515 81.4242 27.8636 81.6818 29.2273 81.6818C30.7121 81.6818 31.9697 81.3712 33 80.75C34.0455 80.1136 34.8409 79.1818 35.3864 77.9545C35.9318 76.7273 36.2045 75.2273 36.2045 73.4545V40.4545ZM63.0398 87.7727C60.8277 87.7727 58.8277 87.3636 57.0398 86.5455C55.2519 85.7121 53.8352 84.5076 52.7898 82.9318C51.7595 81.3561 51.2443 79.4242 51.2443 77.1364C51.2443 75.1667 51.6231 73.5455 52.3807 72.2727C53.1383 71 54.161 69.9924 55.4489 69.25C56.7367 68.5076 58.1761 67.947 59.767 67.5682C61.358 67.1894 62.9792 66.9015 64.6307 66.7045C66.7216 66.4621 68.4186 66.2652 69.7216 66.1136C71.0246 65.947 71.9716 65.6818 72.5625 65.3182C73.1534 64.9545 73.4489 64.3636 73.4489 63.5455V63.3864C73.4489 61.4015 72.8883 59.8636 71.767 58.7727C70.661 57.6818 69.0095 57.1364 66.8125 57.1364C64.5246 57.1364 62.7216 57.6439 61.4034 58.6591C60.1004 59.6591 59.1989 60.7727 58.6989 62L52.3125 60.5455C53.0701 58.4242 54.1761 56.7121 55.6307 55.4091C57.1004 54.0909 58.7898 53.1364 60.6989 52.5455C62.608 51.9394 64.6155 51.6364 66.7216 51.6364C68.1155 51.6364 69.5928 51.803 71.1534 52.1364C72.7292 52.4545 74.1989 53.0455 75.5625 53.9091C76.9413 54.7727 78.0701 56.0076 78.9489 57.6136C79.8277 59.2045 80.267 61.2727 80.267 63.8182V87H73.6307V82.2273H73.358C72.9186 83.1061 72.2595 83.9697 71.3807 84.8182C70.5019 85.6667 69.3731 86.3712 67.9943 86.9318C66.6155 87.4924 64.964 87.7727 63.0398 87.7727ZM64.517 82.3182C66.3958 82.3182 68.0019 81.947 69.3352 81.2045C70.6837 80.4621 71.7064 79.4924 72.4034 78.2955C73.1155 77.0833 73.4716 75.7879 73.4716 74.4091V69.9091C73.2292 70.1515 72.7595 70.3788 72.0625 70.5909C71.3807 70.7879 70.6004 70.9621 69.7216 71.1136C68.8428 71.25 67.9867 71.3788 67.1534 71.5C66.3201 71.6061 65.6231 71.697 65.0625 71.7727C63.7443 71.9394 62.5398 72.2197 61.4489 72.6136C60.3731 73.0076 59.5095 73.5758 58.858 74.3182C58.2216 75.0455 57.9034 76.0152 57.9034 77.2273C57.9034 78.9091 58.5246 80.1818 59.767 81.0455C61.0095 81.8939 62.5928 82.3182 64.517 82.3182ZM117.932 52.0909L105.273 87H98L85.3182 52.0909H92.6136L101.455 78.9545H101.818L110.636 52.0909H117.932ZM132.347 40.4545V44.8182C132.347 46.1061 132.104 47.4621 131.619 48.8864C131.15 50.2955 130.483 51.6515 129.619 52.9545C128.756 54.2576 127.741 55.3788 126.574 56.3182L123.21 53.9091C124.104 52.6061 124.877 51.2197 125.528 49.75C126.195 48.2803 126.528 46.6591 126.528 44.8864V40.4545H132.347ZM162.266 62.3047L158.744 63.2109C158.566 62.2635 158.236 61.4122 157.756 60.657C157.289 59.888 156.609 59.2839 155.717 58.8445C154.838 58.3913 153.684 58.1648 152.256 58.1648C150.114 58.1648 148.268 58.6866 146.716 59.7301C145.164 60.7599 144.258 62.0781 143.997 63.6847C143.777 65.0303 144.059 66.1219 144.842 66.9595C145.638 67.7971 146.97 68.4562 148.837 68.9368L153.451 70.1108C156.005 70.7699 157.824 71.7997 158.909 73.2003C160.008 74.6009 160.385 76.3722 160.042 78.5142C159.74 80.2992 158.978 81.8783 157.756 83.2514C156.547 84.6245 154.996 85.7024 153.101 86.4851C151.22 87.2678 149.119 87.6591 146.798 87.6591C143.681 87.6591 141.23 86.9588 139.445 85.5582C137.674 84.1577 136.727 82.1392 136.603 79.5028L140.29 78.679C140.4 80.5464 141.038 81.9607 142.205 82.9219C143.386 83.883 145.048 84.3636 147.19 84.3636C149.634 84.3636 151.687 83.8075 153.348 82.6953C155.009 81.5831 155.964 80.21 156.211 78.576C156.444 77.2853 156.204 76.2143 155.49 75.3629C154.79 74.5116 153.595 73.88 151.906 73.468L146.984 72.2322C144.334 71.5594 142.459 70.509 141.361 69.081C140.276 67.6392 139.912 65.861 140.269 63.7464C140.558 62.0026 141.285 60.4716 142.452 59.1534C143.62 57.8352 145.096 56.8054 146.881 56.0639C148.666 55.3087 150.616 54.9311 152.73 54.9311C155.641 54.9311 157.859 55.5902 159.383 56.9084C160.907 58.2128 161.868 60.0116 162.266 62.3047ZM16.8182 151L24.5455 104.455H38.8864C41.8258 104.455 44.25 105.061 46.1591 106.273C48.0833 107.47 49.4394 109.129 50.2273 111.25C51.0152 113.356 51.1818 115.758 50.7273 118.455C50.2879 121.121 49.3258 123.508 47.8409 125.614C46.3561 127.72 44.4545 129.386 42.1364 130.614C39.8182 131.826 37.1894 132.432 34.25 132.432H21.8864L22.3409 129.795H34.6364C37.0152 129.795 39.1364 129.311 41 128.341C42.8636 127.356 44.3864 126.015 45.5682 124.318C46.7652 122.606 47.5455 120.652 47.9091 118.455C48.2727 116.227 48.1439 114.265 47.5227 112.568C46.9015 110.856 45.8182 109.515 44.2727 108.545C42.7273 107.576 40.7576 107.091 38.3636 107.091H26.9318L19.6591 151H16.8182ZM55.3523 151L61.1705 116.091H63.9205L58.1023 151H55.3523ZM63.8523 109.886C63.2008 109.886 62.6553 109.667 62.2159 109.227C61.7917 108.773 61.6098 108.22 61.6705 107.568C61.7008 107.023 61.9432 106.545 62.3977 106.136C62.8523 105.727 63.375 105.523 63.9659 105.523C64.6174 105.523 65.1553 105.75 65.5795 106.205C66.0038 106.644 66.1932 107.182 66.1477 107.818C66.1023 108.379 65.8523 108.864 65.3977 109.273C64.9583 109.682 64.4432 109.886 63.8523 109.886ZM68.5341 151L68.9659 148.659L94.3523 118.977L94.3977 118.727H75.0341L75.4886 116.091H98.4205L97.9886 118.477L72.8523 148.114L72.8068 148.364H93.875L93.4205 151H68.5341ZM101.784 151L102.216 148.659L127.602 118.977L127.648 118.727H108.284L108.739 116.091H131.67L131.239 118.477L106.102 148.114L106.057 148.364H127.125L126.67 151H101.784ZM145.375 151.75C143.36 151.75 141.58 151.348 140.034 150.545C138.504 149.742 137.36 148.568 136.602 147.023C135.845 145.477 135.64 143.598 135.989 141.386C136.246 139.932 136.723 138.652 137.42 137.545C138.117 136.439 139.072 135.485 140.284 134.682C141.496 133.879 142.981 133.22 144.739 132.705C146.511 132.174 148.58 131.765 150.943 131.477C152.761 131.265 154.383 131.053 155.807 130.841C157.231 130.629 158.383 130.303 159.261 129.864C160.14 129.424 160.655 128.765 160.807 127.886L161.034 126.432C161.458 123.902 161.027 121.886 159.739 120.386C158.451 118.871 156.398 118.114 153.58 118.114C151.095 118.114 148.867 118.674 146.898 119.795C144.928 120.902 143.458 122.303 142.489 124L140.08 123.023C141.019 121.356 142.208 119.97 143.648 118.864C145.102 117.758 146.693 116.932 148.42 116.386C150.163 115.841 151.936 115.568 153.739 115.568C155.299 115.568 156.754 115.788 158.102 116.227C159.451 116.667 160.602 117.333 161.557 118.227C162.527 119.121 163.216 120.265 163.625 121.659C164.049 123.038 164.095 124.689 163.761 126.614L159.716 151H156.943L158.011 144.705H157.807C156.989 146.008 155.958 147.197 154.716 148.273C153.489 149.333 152.087 150.182 150.511 150.818C148.936 151.439 147.223 151.75 145.375 151.75ZM145.898 149.182C148.08 149.182 150.11 148.652 151.989 147.591C153.883 146.515 155.473 145.045 156.761 143.182C158.064 141.318 158.905 139.205 159.284 136.841L160.17 131.705C159.761 132.008 159.208 132.28 158.511 132.523C157.814 132.75 157.034 132.955 156.17 133.136C155.322 133.303 154.436 133.455 153.511 133.591C152.602 133.712 151.716 133.826 150.852 133.932C148.261 134.235 146.117 134.705 144.42 135.341C142.723 135.962 141.413 136.78 140.489 137.795C139.58 138.811 138.996 140.038 138.739 141.477C138.36 143.856 138.845 145.735 140.193 147.114C141.557 148.492 143.458 149.182 145.898 149.182Z" fill="black"/>
</svg>
